<svg width="162" height="36" viewBox="0 0 162 36" fill="none" xmlns="http://www.w3.org/2000/svg">
<rect width="162" height="36" rx="3" fill="#39B75D"/>
<path d="M23.5781 19.6172H21.375V24H19.3984V12.625H23.3984C24.7109 12.625 25.724 12.9193 26.4375 13.5078C27.151 14.0964 27.5078 14.9479 27.5078 16.0625C27.5078 16.8229 27.3229 17.4609 26.9531 17.9766C26.5885 18.487 26.0781 18.8802 25.4219 19.1562L27.9766 23.8984V24H25.8594L23.5781 19.6172ZM21.375 18.0312H23.4062C24.0729 18.0312 24.5938 17.8646 24.9688 17.5312C25.3438 17.1927 25.5312 16.7318 25.5312 16.1484C25.5312 15.5391 25.3568 15.0677 25.0078 14.7344C24.6641 14.401 24.1484 14.2292 23.4609 14.2188H21.375V18.0312ZM32.9219 24.1562C31.7188 24.1562 30.7422 23.7786 29.9922 23.0234C29.2474 22.263 28.875 21.2526 28.875 19.9922V19.7578C28.875 18.9141 29.0365 18.1615 29.3594 17.5C29.6875 16.8333 30.1458 16.3151 30.7344 15.9453C31.3229 15.5755 31.9792 15.3906 32.7031 15.3906C33.8542 15.3906 34.7422 15.7578 35.3672 16.4922C35.9974 17.2266 36.3125 18.2656 36.3125 19.6094V20.375H30.7891C30.8464 21.0729 31.0781 21.625 31.4844 22.0312C31.8958 22.4375 32.4115 22.6406 33.0312 22.6406C33.901 22.6406 34.6094 22.2891 35.1562 21.5859L36.1797 22.5625C35.8411 23.0677 35.388 23.4609 34.8203 23.7422C34.2578 24.0182 33.625 24.1562 32.9219 24.1562ZM32.6953 16.9141C32.1745 16.9141 31.7526 17.0964 31.4297 17.4609C31.112 17.8255 30.9089 18.3333 30.8203 18.9844H34.4375V18.8438C34.3958 18.2083 34.2266 17.7292 33.9297 17.4062C33.6328 17.0781 33.2214 16.9141 32.6953 16.9141ZM37.4609 19.7109C37.4609 18.3984 37.7682 17.3516 38.3828 16.5703C39.0026 15.7839 39.8229 15.3906 40.8438 15.3906C41.8073 15.3906 42.5651 15.7266 43.1172 16.3984L43.2031 15.5469H44.9141V23.7422C44.9141 24.8516 44.5677 25.7266 43.875 26.3672C43.1875 27.0078 42.2578 27.3281 41.0859 27.3281C40.4661 27.3281 39.8594 27.1979 39.2656 26.9375C38.6771 26.6823 38.2292 26.3464 37.9219 25.9297L38.8203 24.7891C39.4036 25.4818 40.1224 25.8281 40.9766 25.8281C41.6068 25.8281 42.1042 25.6562 42.4688 25.3125C42.8333 24.974 43.0156 24.474 43.0156 23.8125V23.2422C42.4688 23.8516 41.7396 24.1562 40.8281 24.1562C39.8385 24.1562 39.0286 23.763 38.3984 22.9766C37.7734 22.1901 37.4609 21.1016 37.4609 19.7109ZM39.3516 19.875C39.3516 20.724 39.5234 21.3932 39.8672 21.8828C40.2161 22.3672 40.6979 22.6094 41.3125 22.6094C42.0781 22.6094 42.6458 22.2812 43.0156 21.625V17.9062C42.6562 17.2656 42.0938 16.9453 41.3281 16.9453C40.7031 16.9453 40.2161 17.1927 39.8672 17.6875C39.5234 18.1823 39.3516 18.9115 39.3516 19.875ZM48.8906 24H46.9922V15.5469H48.8906V24ZM46.875 13.3516C46.875 13.0599 46.9661 12.8177 47.1484 12.625C47.3359 12.4323 47.6016 12.3359 47.9453 12.3359C48.2891 12.3359 48.5547 12.4323 48.7422 12.625C48.9297 12.8177 49.0234 13.0599 49.0234 13.3516C49.0234 13.638 48.9297 13.8776 48.7422 14.0703C48.5547 14.2578 48.2891 14.3516 47.9453 14.3516C47.6016 14.3516 47.3359 14.2578 47.1484 14.0703C46.9661 13.8776 46.875 13.638 46.875 13.3516ZM55.7031 21.7031C55.7031 21.3646 55.5625 21.1068 55.2812 20.9297C55.0052 20.7526 54.5443 20.5964 53.8984 20.4609C53.2526 20.3255 52.7135 20.1536 52.2812 19.9453C51.3333 19.487 50.8594 18.8229 50.8594 17.9531C50.8594 17.224 51.1667 16.6146 51.7812 16.125C52.3958 15.6354 53.1771 15.3906 54.125 15.3906C55.1354 15.3906 55.9505 15.6406 56.5703 16.1406C57.1953 16.6406 57.5078 17.2891 57.5078 18.0859H55.6094C55.6094 17.7214 55.474 17.4193 55.2031 17.1797C54.9323 16.9349 54.5729 16.8125 54.125 16.8125C53.7083 16.8125 53.3672 16.9089 53.1016 17.1016C52.8411 17.2943 52.7109 17.5521 52.7109 17.875C52.7109 18.1667 52.8333 18.3932 53.0781 18.5547C53.3229 18.7161 53.8177 18.8802 54.5625 19.0469C55.3073 19.2083 55.8906 19.4036 56.3125 19.6328C56.7396 19.8568 57.0547 20.1276 57.2578 20.4453C57.4661 20.763 57.5703 21.1484 57.5703 21.6016C57.5703 22.362 57.2552 22.9792 56.625 23.4531C55.9948 23.9219 55.1693 24.1562 54.1484 24.1562C53.4557 24.1562 52.8385 24.0312 52.2969 23.7812C51.7552 23.5312 51.3333 23.1875 51.0312 22.75C50.7292 22.3125 50.5781 21.8411 50.5781 21.3359H52.4219C52.4479 21.7839 52.6172 22.1302 52.9297 22.375C53.2422 22.6146 53.6562 22.7344 54.1719 22.7344C54.6719 22.7344 55.0521 22.6406 55.3125 22.4531C55.5729 22.2604 55.7031 22.0104 55.7031 21.7031ZM61.6094 13.4922V15.5469H63.1016V16.9531H61.6094V21.6719C61.6094 21.9948 61.6719 22.2292 61.7969 22.375C61.9271 22.5156 62.1562 22.5859 62.4844 22.5859C62.7031 22.5859 62.9245 22.5599 63.1484 22.5078V23.9766C62.7161 24.0964 62.2995 24.1562 61.8984 24.1562C60.4401 24.1562 59.7109 23.3516 59.7109 21.7422V16.9531H58.3203V15.5469H59.7109V13.4922H61.6094ZM68.2812 24.1562C67.0781 24.1562 66.1016 23.7786 65.3516 23.0234C64.6068 22.263 64.2344 21.2526 64.2344 19.9922V19.7578C64.2344 18.9141 64.3958 18.1615 64.7188 17.5C65.0469 16.8333 65.5052 16.3151 66.0938 15.9453C66.6823 15.5755 67.3385 15.3906 68.0625 15.3906C69.2135 15.3906 70.1016 15.7578 70.7266 16.4922C71.3568 17.2266 71.6719 18.2656 71.6719 19.6094V20.375H66.1484C66.2057 21.0729 66.4375 21.625 66.8438 22.0312C67.2552 22.4375 67.7708 22.6406 68.3906 22.6406C69.2604 22.6406 69.9688 22.2891 70.5156 21.5859L71.5391 22.5625C71.2005 23.0677 70.7474 23.4609 70.1797 23.7422C69.6172 24.0182 68.9844 24.1562 68.2812 24.1562ZM68.0547 16.9141C67.5339 16.9141 67.112 17.0964 66.7891 17.4609C66.4714 17.8255 66.2682 18.3333 66.1797 18.9844H69.7969V18.8438C69.7552 18.2083 69.5859 17.7292 69.2891 17.4062C68.9922 17.0781 68.5807 16.9141 68.0547 16.9141ZM77.5781 17.2812C77.3281 17.2396 77.0703 17.2188 76.8047 17.2188C75.9349 17.2188 75.349 17.5521 75.0469 18.2188V24H73.1484V15.5469H74.9609L75.0078 16.4922C75.4661 15.7578 76.1016 15.3906 76.9141 15.3906C77.1849 15.3906 77.4089 15.4271 77.5859 15.5L77.5781 17.2812ZM85.7188 21.2812L87.4375 15.5469H89.4609L86.1016 25.2812C85.5859 26.7031 84.7109 27.4141 83.4766 27.4141C83.2005 27.4141 82.8958 27.3672 82.5625 27.2734V25.8047L82.9219 25.8281C83.401 25.8281 83.7604 25.7396 84 25.5625C84.2448 25.3906 84.4375 25.099 84.5781 24.6875L84.8516 23.9609L81.8828 15.5469H83.9297L85.7188 21.2812ZM90.0781 19.6953C90.0781 18.8672 90.2422 18.1224 90.5703 17.4609C90.8984 16.7943 91.3594 16.2839 91.9531 15.9297C92.5469 15.5703 93.2292 15.3906 94 15.3906C95.1406 15.3906 96.0651 15.7578 96.7734 16.4922C97.487 17.2266 97.8724 18.2005 97.9297 19.4141L97.9375 19.8594C97.9375 20.6927 97.776 21.4375 97.4531 22.0938C97.1354 22.75 96.6771 23.2578 96.0781 23.6172C95.4844 23.9766 94.7969 24.1562 94.0156 24.1562C92.8229 24.1562 91.8672 23.7604 91.1484 22.9688C90.4349 22.1719 90.0781 21.112 90.0781 19.7891V19.6953ZM91.9766 19.8594C91.9766 20.7292 92.1562 21.4115 92.5156 21.9062C92.875 22.3958 93.375 22.6406 94.0156 22.6406C94.6562 22.6406 95.1536 22.3906 95.5078 21.8906C95.8672 21.3906 96.0469 20.6589 96.0469 19.6953C96.0469 18.8411 95.862 18.1641 95.4922 17.6641C95.1276 17.1641 94.6302 16.9141 94 16.9141C93.3802 16.9141 92.888 17.1615 92.5234 17.6562C92.1589 18.1458 91.9766 18.8802 91.9766 19.8594ZM104.664 23.1719C104.107 23.8281 103.315 24.1562 102.289 24.1562C101.372 24.1562 100.677 23.888 100.203 23.3516C99.7344 22.8151 99.5 22.0391 99.5 21.0234V15.5469H101.398V21C101.398 22.0729 101.844 22.6094 102.734 22.6094C103.656 22.6094 104.279 22.2786 104.602 21.6172V15.5469H106.5V24H104.711L104.664 23.1719ZM112.859 17.2812C112.609 17.2396 112.352 17.2188 112.086 17.2188C111.216 17.2188 110.63 17.5521 110.328 18.2188V24H108.43V15.5469H110.242L110.289 16.4922C110.747 15.7578 111.383 15.3906 112.195 15.3906C112.466 15.3906 112.69 15.4271 112.867 15.5L112.859 17.2812ZM123.094 24C123.01 23.8385 122.938 23.5755 122.875 23.2109C122.271 23.8411 121.531 24.1562 120.656 24.1562C119.807 24.1562 119.115 23.9141 118.578 23.4297C118.042 22.9453 117.773 22.3464 117.773 21.6328C117.773 20.7318 118.107 20.0417 118.773 19.5625C119.445 19.0781 120.404 18.8359 121.648 18.8359H122.812V18.2812C122.812 17.8438 122.69 17.4948 122.445 17.2344C122.201 16.9688 121.828 16.8359 121.328 16.8359C120.896 16.8359 120.542 16.9453 120.266 17.1641C119.99 17.3776 119.852 17.651 119.852 17.9844H117.953C117.953 17.5208 118.107 17.0885 118.414 16.6875C118.721 16.2812 119.138 15.9635 119.664 15.7344C120.195 15.5052 120.786 15.3906 121.438 15.3906C122.427 15.3906 123.216 15.6406 123.805 16.1406C124.393 16.6354 124.695 17.3333 124.711 18.2344V22.0469C124.711 22.8073 124.818 23.4141 125.031 23.8672V24H123.094ZM121.008 22.6328C121.383 22.6328 121.734 22.5417 122.062 22.3594C122.396 22.1771 122.646 21.9323 122.812 21.625V20.0312H121.789C121.086 20.0312 120.557 20.1536 120.203 20.3984C119.849 20.6432 119.672 20.9896 119.672 21.4375C119.672 21.8021 119.792 22.0938 120.031 22.3125C120.276 22.526 120.602 22.6328 121.008 22.6328ZM134.102 19.8594C134.102 21.1667 133.805 22.2109 133.211 22.9922C132.617 23.7682 131.82 24.1562 130.82 24.1562C129.893 24.1562 129.151 23.8516 128.594 23.2422V27.25H126.695V15.5469H128.445L128.523 16.4062C129.081 15.7292 129.839 15.3906 130.797 15.3906C131.828 15.3906 132.635 15.776 133.219 16.5469C133.807 17.3125 134.102 18.3776 134.102 19.7422V19.8594ZM132.211 19.6953C132.211 18.8516 132.042 18.1823 131.703 17.6875C131.37 17.1927 130.891 16.9453 130.266 16.9453C129.49 16.9453 128.932 17.2656 128.594 17.9062V21.6562C128.938 22.3125 129.5 22.6406 130.281 22.6406C130.885 22.6406 131.357 22.3984 131.695 21.9141C132.039 21.4245 132.211 20.6849 132.211 19.6953ZM143.117 19.8594C143.117 21.1667 142.82 22.2109 142.227 22.9922C141.633 23.7682 140.836 24.1562 139.836 24.1562C138.909 24.1562 138.167 23.8516 137.609 23.2422V27.25H135.711V15.5469H137.461L137.539 16.4062C138.096 15.7292 138.854 15.3906 139.812 15.3906C140.844 15.3906 141.651 15.776 142.234 16.5469C142.823 17.3125 143.117 18.3776 143.117 19.7422V19.8594ZM141.227 19.6953C141.227 18.8516 141.057 18.1823 140.719 17.6875C140.385 17.1927 139.906 16.9453 139.281 16.9453C138.505 16.9453 137.948 17.2656 137.609 17.9062V21.6562C137.953 22.3125 138.516 22.6406 139.297 22.6406C139.901 22.6406 140.372 22.3984 140.711 21.9141C141.055 21.4245 141.227 20.6849 141.227 19.6953Z" fill="white"/>
</svg>
